<svg width="49" height="42" viewBox="0 0 49 42" fill="none" xmlns="http://www.w3.org/2000/svg">
<g filter="url(#filter0_d_0_49)">
<path fill-rule="evenodd" clip-rule="evenodd" d="M37.634 0H10.7268C8.49784 0 6.69073 1.80686 6.69073 4.03581V21.5256C6.69073 21.9973 6.77168 22.4502 6.92045 22.871H6.69073V25.5617H10.7268V4.03581H37.634V25.5617H41.6702V22.871H41.4404C41.5892 22.4502 41.6702 21.9973 41.6702 21.5256V4.03581C41.6702 1.80686 39.863 0 37.634 0ZM6.69073 28.2519H41.6702C43.1561 28.2519 44.3609 29.4571 44.3609 30.9432C44.3609 32.4291 41.8108 33.6338 40.3248 33.6338H8.03611C6.55003 33.6338 4 32.4291 4 30.9432C4 29.4571 5.20477 28.2519 6.69073 28.2519ZM28.2166 30.9432H20.1444C19.4013 30.9432 18.7991 31.2443 18.7991 31.6156C18.7991 31.987 19.4013 32.2883 20.1444 32.2883H28.2166C28.9596 32.2883 29.562 31.987 29.562 31.6156C29.562 31.2443 28.9596 30.9432 28.2166 30.9432ZM15.147 15.7839L17.0413 13.8807C17.5642 13.3556 18.4123 13.3556 18.9353 13.8807L21.4182 16.375L29.4206 8.33699C29.9436 7.81125 30.7918 7.81125 31.3148 8.33699L33.209 10.2391C33.732 10.7645 33.732 11.6167 33.209 12.142L22.791 22.6063C22.3431 23.0562 21.6569 23.1208 21.1405 22.8002C20.7031 22.9046 20.2236 22.7854 19.8824 22.4427L15.147 17.6864C14.624 17.1611 14.624 16.3096 15.147 15.7839Z" fill="#FED136"/>
</g>
<defs>
<filter id="filter0_d_0_49" x="0" y="0" width="48.3609" height="41.6338" filterUnits="userSpaceOnUse" color-interpolation-filters="sRGB">
<feFlood flood-opacity="0" result="BackgroundImageFix"/>
<feColorMatrix in="SourceAlpha" type="matrix" values="0 0 0 0 0 0 0 0 0 0 0 0 0 0 0 0 0 0 127 0" result="hardAlpha"/>
<feOffset dy="4"/>
<feGaussianBlur stdDeviation="2"/>
<feComposite in2="hardAlpha" operator="out"/>
<feColorMatrix type="matrix" values="0 0 0 0 0 0 0 0 0 0 0 0 0 0 0 0 0 0 0.25 0"/>
<feBlend mode="normal" in2="BackgroundImageFix" result="effect1_dropShadow_0_49"/>
<feBlend mode="normal" in="SourceGraphic" in2="effect1_dropShadow_0_49" result="shape"/>
</filter>
</defs>
</svg>
